<svg width="392" height="424" viewBox="0 0 392 424" fill="none" xmlns="http://www.w3.org/2000/svg">
<g id="reservatorio">
<path id="No_fill" d="M10.2709 30.0567C10.9651 136.677 6.70233 351.919 3.91142 359.954C-7.96544 387.613 15.9392 398.663 85.8778 414.391C248.632 432.077 312.357 421.341 374.173 392.897C387.608 380.886 387.997 374.665 380.179 364.159L385.832 30.0567L390.425 28.6548L387.952 25.1503C226.491 8.15406 155.843 7.191 29.7026 21.412V6.92648C28.2344 4.7344 27.2745 3.56388 25.8162 1.5528C22.3673 0.994398 20.4324 0.656219 16.9836 1.5528C16.0124 3.61345 15.1086 4.78192 13.8039 6.92648L12.3907 23.5148C9.56503 22.9736 8.06627 23.0829 5.67794 24.683C5.05618 26.1754 5.29001 26.7253 5.67794 27.7203L10.2709 30.0567Z" fill="#778DA9" stroke="#92A4BB"/>
<rect id="fill" x="183" y="50" width="26" height="330" fill="#00FFFF" stroke="black" stroke-width="2"/>
<rect id="tank" x="184" y="51" width="24" height="328" fill="#778DA9"/>
</g>
</svg>
